{
  "accessors": [
    {
      "bufferView": 2,
      "componentType": 5126,
      "count": 64,
      "max": [
        13.961009979248047,
        8.7338695526123047,
        23.163349151611328
      ],
      "min": [
        -16.573869705200195,
        -11.178569793701172,
        -1.5
      ],
      "type": "VEC3"
    },
    {
      "bufferView": 2,
      "byteOffset": 768,
      "componentType": 5126,
      "count": 64,
      "max": [
        0.98475915193557739,
        0.98986166715621948,
        0.82469075918197632
      ],
      "min": [
        -0.98475915193557739,
        -0.98986166715621948,
        -0.82469075918197632
      ],
      "type": "VEC3"
    },
    {
      "bufferView": 3,
      "componentType": 5126,
      "count": 64,
      "max": [
        0.96936166286468506,
        0.99931573867797852,
        9.5502018666593358e-06,
        1
      ],
      "min": [
        -0.99500894546508789,
        -0.98987865447998047,
        -0.011848211288452148,
        -1
      ],
      "type": "VEC4"
    },
    {
      "bufferView": 1,
      "componentType": 5126,
      "count": 64,
      "max": [
        0.99993002414703369,
        0.99998998641967773
      ],
      "min": [
        7.0000001869630069e-05,
        0.00013000000035390258
      ],
      "type": "VEC2"
    },
    {
      "bufferView": 0,
      "componentType": 5125,
      "count": 144,
      "max": [
        63
      ],
      "min": [
        0
      ],
      "type": "SCALAR"
    }
  ],
  "asset": {
    "extras": {
      "author": "Rusoski (https://sketchfab.com/Rusoski)",
      "license": "CC-BY-4.0 (http://creativecommons.org/licenses/by/4.0/)",
      "source": "https://sketchfab.com/models/0689cc8c406d42009cbf0d82f7e39b07",
      "title": "Grass"
    },
    "generator": "Sketchfab-3.19.5",
    "version": "2.0"
  },
  "bufferViews": [
    {
      "buffer": 0,
      "byteLength": 576,
      "byteOffset": 0,
      "name": "floatBufferViews",
      "target": 34963
    },
    {
      "buffer": 0,
      "byteLength": 512,
      "byteOffset": 576,
      "byteStride": 8,
      "name": "floatBufferViews",
      "target": 34962
    },
    {
      "buffer": 0,
      "byteLength": 1536,
      "byteOffset": 1088,
      "byteStride": 12,
      "name": "floatBufferViews",
      "target": 34962
    },
    {
      "buffer": 0,
      "byteLength": 1024,
      "byteOffset": 2624,
      "byteStride": 16,
      "name": "floatBufferViews",
      "target": 34962
    }
  ],
  "buffers": [
    {
      "byteLength": 3648,
      "uri": "scene.bin"
    }
  ],
  "extensionsRequired": [
    "KHR_materials_pbrSpecularGlossiness"
  ],
  "extensionsUsed": [
    "KHR_materials_pbrSpecularGlossiness"
  ],
  "images": [
    {
      "uri": "textures/Grass_diffuse.png"
    },
    {
      "uri": "textures/Grass_normal.png"
    },
    {
      "uri": "textures/Grass_specularGlossiness.png"
    }
  ],
  "materials": [
    {
      "alphaMode": "BLEND",
      "doubleSided": true,
      "emissiveFactor": [
        0,
        0,
        0
      ],
      "extensions": {
        "KHR_materials_pbrSpecularGlossiness": {
          "diffuseFactor": [
            1,
            1,
            1,
            1
          ],
          "diffuseTexture": {
            "index": 0,
            "texCoord": 0
          },
          "glossinessFactor": 0.40000000000000002,
          "specularFactor": [
            1,
            1,
            1
          ],
          "specularGlossinessTexture": {
            "index": 2,
            "texCoord": 0
          }
        }
      },
      "name": "Grass",
      "normalTexture": {
        "index": 1,
        "scale": 1,
        "texCoord": 0
      }
    }
  ],
  "meshes": [
    {
      "name": "Plane.002_0",
      "primitives": [
        {
          "attributes": {
            "NORMAL": 1,
            "POSITION": 0,
            "TANGENT": 2,
            "TEXCOORD_0": 3
          },
          "indices": 4,
          "material": 0,
          "mode": 4
        }
      ]
    }
  ],
  "nodes": [
    {
      "children": [
        1
      ],
      "name": "RootNode (gltf orientation matrix)",
      "rotation": [
        -0.70710678118654746,
        -0,
        -0,
        0.70710678118654757
      ]
    },
    {
      "children": [
        2
      ],
      "name": "RootNode (model correction matrix)"
    },
    {
      "children": [
        3,
        5,
        7
      ],
      "name": "Root"
    },
    {
      "children": [
        4
      ],
      "matrix": [
        0.5,
        -0.5,
        -0.70711000000000002,
        0,
        0.70711000000000002,
        0.70711000000000002,
        0,
        0,
        0.5,
        -0.5,
        0.70711000000000002,
        0,
        22.959539999999997,
        -25.015029999999999,
        37.044479999999993,
        1
      ],
      "name": "Hemi.001"
    },
    {
      "name": "Hemi.001"
    },
    {
      "children": [
        6
      ],
      "name": "Plane.002"
    },
    {
      "mesh": 0,
      "name": "Plane.002_0"
    },
    {
      "children": [
        8
      ],
      "matrix": [
        1,
        0,
        0,
        0,
        0,
        1,
        0,
        0,
        0,
        0,
        1,
        0,
        -0.48572000000000004,
        1.4018499999999998,
        9.5843699999999981,
        1
      ],
      "name": "Point"
    },
    {
      "name": "Point"
    }
  ],
  "samplers": [
    {
      "magFilter": 9729,
      "minFilter": 9987,
      "wrapS": 10497,
      "wrapT": 10497
    }
  ],
  "scene": 0,
  "scenes": [
    {
      "name": "OSG_Scene",
      "nodes": [
        0
      ]
    }
  ],
  "textures": [
    {
      "sampler": 0,
      "source": 0
    },
    {
      "sampler": 0,
      "source": 1
    },
    {
      "sampler": 0,
      "source": 2
    }
  ]
}

