{
  "accessors": [
    {
      "bufferView": 1,
      "componentType": 5126,
      "count": 498,
      "max": [
        0.23053674399852753,
        0.38453194499015808,
        1.3710819482803345
      ],
      "min": [
        -0.23053674399852753,
        -2.3660228252410889,
        -1.3905537128448486
      ],
      "type": "VEC3"
    },
    {
      "bufferView": 1,
      "byteOffset": 5976,
      "componentType": 5126,
      "count": 498,
      "max": [
        0.99968957901000977,
        0.99569153785705566,
        0.94640856981277466
      ],
      "min": [
        -0.99969416856765747,
        -1,
        -0.94594019651412964
      ],
      "type": "VEC3"
    },
    {
      "bufferView": 2,
      "componentType": 5126,
      "count": 498,
      "max": [
        1,
        0.75723433494567871,
        0.97385102510452271,
        1
      ],
      "min": [
        -0.28027907013893127,
        -0.75125610828399658,
        -0.97403395175933838,
        1
      ],
      "type": "VEC4"
    },
    {
      "bufferView": 0,
      "componentType": 5125,
      "count": 960,
      "max": [
        497
      ],
      "min": [
        0
      ],
      "type": "SCALAR"
    },
    {
      "bufferView": 1,
      "byteOffset": 11952,
      "componentType": 5126,
      "count": 672,
      "max": [
        1.3060814142227173,
        1.2123527526855469,
        2.7081403732299805
      ],
      "min": [
        -1.2242872714996338,
        -0.93987524509429932,
        -0.77504110336303711
      ],
      "type": "VEC3"
    },
    {
      "bufferView": 1,
      "byteOffset": 20016,
      "componentType": 5126,
      "count": 672,
      "max": [
        0.99739056825637817,
        0.99873769283294678,
        0.97798049449920654
      ],
      "min": [
        -0.99739056825637817,
        -0.998737633228302,
        -0.97798037528991699
      ],
      "type": "VEC3"
    },
    {
      "bufferView": 2,
      "byteOffset": 7968,
      "componentType": 5126,
      "count": 672,
      "max": [
        0.95177239179611206,
        0.81129968166351318,
        0.96878230571746826,
        1
      ],
      "min": [
        -0.95177209377288818,
        -0.81129974126815796,
        -0.96878224611282349,
        1
      ],
      "type": "VEC4"
    },
    {
      "bufferView": 0,
      "byteOffset": 3840,
      "componentType": 5125,
      "count": 864,
      "max": [
        671
      ],
      "min": [
        0
      ],
      "type": "SCALAR"
    },
    {
      "bufferView": 1,
      "byteOffset": 28080,
      "componentType": 5126,
      "count": 264,
      "max": [
        1.3847086429595947,
        1.3589938879013062,
        2.6414246559143066
      ],
      "min": [
        -1.3847086429595947,
        -1.1188417673110962,
        -1.0441724061965942
      ],
      "type": "VEC3"
    },
    {
      "bufferView": 1,
      "byteOffset": 31248,
      "componentType": 5126,
      "count": 264,
      "max": [
        0.92612707614898682,
        0.99999433755874634,
        0.99715679883956909
      ],
      "min": [
        -0.93033212423324585,
        -0.99400478601455688,
        -0.99961668252944946
      ],
      "type": "VEC3"
    },
    {
      "bufferView": 2,
      "byteOffset": 18720,
      "componentType": 5126,
      "count": 264,
      "max": [
        1,
        0.44152295589447021,
        0.84448212385177612,
        1
      ],
      "min": [
        -1,
        -0.44152301549911499,
        -0.84448206424713135,
        1
      ],
      "type": "VEC4"
    },
    {
      "bufferView": 0,
      "byteOffset": 7296,
      "componentType": 5125,
      "count": 360,
      "max": [
        263
      ],
      "min": [
        0
      ],
      "type": "SCALAR"
    }
  ],
  "asset": {
    "extras": {
      "author": "Victoria (https://sketchfab.com/vikirose)",
      "license": "CC-BY-4.0 (http://creativecommons.org/licenses/by/4.0/)",
      "source": "https://sketchfab.com/models/df2a9680dfe7431fa3a6403646737bc4",
      "title": "Low-Poly Shrub"
    },
    "generator": "Sketchfab-3.18.6",
    "version": "2.0"
  },
  "bufferViews": [
    {
      "buffer": 0,
      "byteLength": 8736,
      "byteOffset": 0,
      "name": "floatBufferViews",
      "target": 34963
    },
    {
      "buffer": 0,
      "byteLength": 34416,
      "byteOffset": 8736,
      "byteStride": 12,
      "name": "floatBufferViews",
      "target": 34962
    },
    {
      "buffer": 0,
      "byteLength": 22944,
      "byteOffset": 43152,
      "byteStride": 16,
      "name": "floatBufferViews",
      "target": 34962
    }
  ],
  "buffers": [
    {
      "byteLength": 66096,
      "uri": "scene.bin"
    }
  ],
  "materials": [
    {
      "doubleSided": true,
      "emissiveFactor": [
        0,
        0,
        0
      ],
      "name": "trunk",
      "pbrMetallicRoughness": {
        "baseColorFactor": [
          0.13520000000000001,
          0.058406559999999996,
          0.0104104,
          1
        ],
        "metallicFactor": 0,
        "roughnessFactor": 0.59999999999999998
      }
    },
    {
      "doubleSided": true,
      "emissiveFactor": [
        0,
        0,
        0
      ],
      "name": "berries",
      "pbrMetallicRoughness": {
        "baseColorFactor": [
          0.25920000000000004,
          0.0132192,
          0.022681360000000001,
          1
        ],
        "metallicFactor": 0,
        "roughnessFactor": 0.59999999999999998
      }
    },
    {
      "doubleSided": true,
      "emissiveFactor": [
        0,
        0,
        0
      ],
      "name": "leaves",
      "pbrMetallicRoughness": {
        "baseColorFactor": [
          0.023404800000000003,
          0.075200000000000003,
          0.0139872,
          1
        ],
        "metallicFactor": 0,
        "roughnessFactor": 0.59999999999999998
      }
    }
  ],
  "meshes": [
    {
      "name": "trunk3_trunk_0",
      "primitives": [
        {
          "attributes": {
            "NORMAL": 1,
            "POSITION": 0,
            "TANGENT": 2
          },
          "indices": 3,
          "material": 0,
          "mode": 4
        }
      ]
    },
    {
      "name": "trunk3_berries_0",
      "primitives": [
        {
          "attributes": {
            "NORMAL": 5,
            "POSITION": 4,
            "TANGENT": 6
          },
          "indices": 7,
          "material": 1,
          "mode": 4
        }
      ]
    },
    {
      "name": "trunk3_leaves_0",
      "primitives": [
        {
          "attributes": {
            "NORMAL": 9,
            "POSITION": 8,
            "TANGENT": 10
          },
          "indices": 11,
          "material": 2,
          "mode": 4
        }
      ]
    }
  ],
  "nodes": [
    {
      "children": [
        1
      ],
      "name": "RootNode (gltf orientation matrix)",
      "rotation": [
        -0.70710678118654746,
        -0,
        -0,
        0.70710678118654757
      ]
    },
    {
      "children": [
        2
      ],
      "name": "RootNode (model correction matrix)"
    },
    {
      "children": [
        3
      ],
      "matrix": [
        1,
        0,
        0,
        0,
        0,
        0,
        1,
        0,
        0,
        -1,
        0,
        0,
        0,
        0,
        0,
        1
      ],
      "name": "2a5927bf094f460c8a5bb43b0e0630ee.fbx"
    },
    {
      "children": [
        4
      ],
      "name": "RootNode"
    },
    {
      "children": [
        5,
        6,
        7
      ],
      "name": "trunk3"
    },
    {
      "mesh": 0,
      "name": "trunk3_trunk_0"
    },
    {
      "mesh": 1,
      "name": "trunk3_berries_0"
    },
    {
      "mesh": 2,
      "name": "trunk3_leaves_0"
    }
  ],
  "scene": 0,
  "scenes": [
    {
      "name": "OSG_Scene",
      "nodes": [
        0
      ]
    }
  ]
}

