# File produced by Open Asset Import Library (http://www.assimp.sf.net)
# (assimp v3.1.187496374)

mtllib model.obj.mtl

# 39 vertex positions
v  3.78759 0 -16.1293
v  3.04258 0 0
v  3.04258 0 -16.1293
v  3.04258 0 0.000742258
v  3.78759 0 0.000742258
v  6.92606 0 -16.1293
v  6.92606 0 0.000742258
v  7.12758 0 -16.1293
v  6.92606 0 -14.113
v  7.12758 0 -14.113
v  10.296 0 -16.1293
v  6.92606 0 -12.0968
v  7.12758 0 -12.0968
v  6.92606 0 -10.0805
v  7.12758 0 -10.0805
v  6.92606 0 -8.06426
v  7.12758 0 -8.06426
v  6.92606 0 -6.04801
v  7.12758 0 -6.04801
v  6.92606 0 -4.03176
v  7.12758 0 -4.03176
v  6.92606 0 -2.01551
v  7.12758 0 -2.01551
v  7.12758 0 0.000742258
v  10.296 0 0.000742258
v  11.2126 0 -16.1293
v  11.2126 0 0.000742258
v  11.5126 0.13 -16.1293
v  11.2126 0.13 0.000742258
v  11.2126 0.13 -16.1293
v  11.5126 0.13 0.000742258
v  11.5126 0 -16.1293
v  11.5126 0 0.000742258
v  3.04258 0.11 -16.1293
v  2.74751 0.11 0
v  2.74751 0.11 -16.1293
v  3.04258 0.11 0
v  2.74751 0 -16.1293
v  2.74751 0 0

# 61 UV coordinates
vt -33.7797 -0.00243523 0
vt -33.7797 52.9175 0
vt -23.3845 -0.00243523 0
vt -23.3845 6.61256 0
vt -22.7233 -0.00243523 0
vt -23.3845 13.2275 0
vt -22.7233 6.61256 0
vt -23.3845 19.8426 0
vt -22.7233 13.2275 0
vt -23.3845 26.4575 0
vt -22.7233 19.8426 0
vt -22.7233 26.4575 0
vt -22.7233 33.0725 0
vt -22.7233 39.6875 0
vt -22.7233 46.3025 0
vt -22.7233 52.9175 0
vt -12.4265 -0.00243523 0
vt -12.4265 52.9175 0
vt -23.3845 33.0725 0
vt -23.3845 39.6875 0
vt -23.3845 46.3025 0
vt -23.3845 52.9175 0
vt -36.7867 -0.00243523 0
vt -36.7867 52.9175 0
vt -9.98223 -0.00243523 0
vt -9.98223 0 0
vt -9.98223 52.9175 0
vt -2.54865 0 0
vt -2.54865 19.8441 0
vt -2.30148 0 0
vt -2.30148 19.8441 0
vt 2.30148 0.135335 0
vt 2.54865 0.135335 0
vt 2.30148 0 0
vt 2.54865 0 0
vt -13.5108 0 0
vt -13.5108 0.135335 0
vt 0 0 0
vt 0 0.135335 0
vt -2.54865 0.135335 0
vt -2.30148 0.135335 0
vt 13.5108 0.135335 0
vt 13.5108 0 0
vt -9.64364 -0.000913211 0
vt -9.64364 19.8441 0
vt -9.39235 -0.000913211 0
vt -9.39235 19.8441 0
vt 13.5108 0.159941 0
vt -0.000621761 0.159941 0
vt -0.000621761 0 0
vt 9.39235 0.159941 0
vt 9.64364 0.159941 0
vt 9.39235 0 0
vt 9.64364 0 0
vt -13.5108 0.159941 0
vt 0.000621761 0 0
vt 0.000621761 0.159941 0
vt -9.64364 0.159941 0
vt -9.39235 0.159941 0
vt -9.64364 0 0
vt -9.39235 0 0

# 6 vertex normals
vn 0 -0.0254 0
vn 0 0.0254 0
vn 0.0254 0 0
vn 0 0 0.0254
vn -0.0254 -0 0
vn 0 0 -0.0254

# Mesh 'SketchUp' with 67 faces
g SketchUp
usemtl JoinedMaterial_#2
f  1//1 2//1 3//1
f  2//1 1//1 4//1
f  4//1 1//1 5//1
f  6//1 5//1 1//1
f  5//1 6//1 7//1
f  8//1 9//1 6//1
f  7//1 6//1 9//1
f  9//1 8//1 10//1
f  11//1 10//1 8//1
f  10//1 12//1 9//1
f  7//1 9//1 12//1
f  10//1 11//1 13//1
f  12//1 10//1 13//1
f  13//1 14//1 12//1
f  7//1 12//1 14//1
f  14//1 13//1 15//1
f  13//1 11//1 15//1
f  15//1 16//1 14//1
f  7//1 14//1 16//1
f  15//1 11//1 17//1
f  16//1 15//1 17//1
f  17//1 18//1 16//1
f  7//1 16//1 18//1
f  18//1 17//1 19//1
f  17//1 11//1 19//1
f  19//1 20//1 18//1
f  7//1 18//1 20//1
f  19//1 11//1 21//1
f  20//1 19//1 21//1
f  21//1 22//1 20//1
f  7//1 20//1 22//1
f  23//1 7//1 22//1
f  7//1 23//1 24//1
f  22//1 21//1 23//1
f  21//1 11//1 23//1
f  23//1 11//1 24//1
f  24//1 11//1 25//1
f  26//1 25//1 11//1
f  25//1 26//1 27//1
f  23//2 21//2 22//2
f  20//2 22//2 21//2
f  19//2 17//2 18//2
f  16//2 18//2 17//2
f  15//2 13//2 14//2
f  12//2 14//2 13//2
f  10//2 8//2 9//2
f  6//2 9//2 8//2
f  28//1 29//1 30//1
f  29//1 28//1 31//1
f  26//3 29//3 27//3
f  29//3 26//3 30//3
f  28//4 26//4 32//4
f  26//4 28//4 30//4
f  28//5 33//5 31//5
f  33//5 28//5 32//5
f  29//6 33//6 27//6
f  33//6 29//6 31//6
f  34//1 35//1 36//1
f  35//1 34//1 37//1
f  34//4 38//4 3//4
f  38//4 34//4 36//4
f  34//5 2//5 37//5
f  2//5 34//5 3//5
f  35//6 2//6 39//6
f  2//6 35//6 37//6
f  38//3 35//3 39//3
f  35//3 38//3 36//3

# Mesh 'SketchUp_ID3' with 26 faces
g SketchUp_ID3
usemtl ID9
f  25/1/2 11/2/2 24/3/2
f  24/3/2 11/2/2 23/4/2
f  24/3/2 23/4/2 7/5/2
f  23/4/2 11/2/2 21/6/2
f  22/7/2 7/5/2 23/4/2
f  21/6/2 11/2/2 19/8/2
f  21/6/2 19/8/2 20/9/2
f  19/8/2 11/2/2 17/10/2
f  18/11/2 20/9/2 19/8/2
f  22/7/2 20/9/2 7/5/2
f  20/9/2 18/11/2 7/5/2
f  18/11/2 16/12/2 7/5/2
f  16/12/2 14/13/2 7/5/2
f  14/13/2 12/14/2 7/5/2
f  12/14/2 9/15/2 7/5/2
f  9/15/2 6/16/2 7/5/2
f  7/5/2 6/16/2 5/17/2
f  1/18/2 5/17/2 6/16/2
f  17/10/2 11/2/2 15/19/2
f  17/10/2 15/19/2 16/12/2
f  15/19/2 11/2/2 13/20/2
f  13/20/2 11/2/2 10/21/2
f  8/22/2 10/21/2 11/2/2
f  14/13/2 16/12/2 15/19/2
f  13/20/2 10/21/2 12/14/2
f  9/15/2 12/14/2 10/21/2

# Mesh 'SketchUp' with 5 faces
g SketchUp
usemtl ID22
f  27/23/2 26/24/2 25/1/2
f  11/2/2 25/1/2 26/24/2
f  5/17/2 1/18/2 4/25/2
f  4/25/2 1/18/2 2/26/2
f  3/27/2 2/26/2 1/18/2

# Mesh 'SketchUp' with 20 faces
g SketchUp
usemtl ID69
f  37/28/2 34/29/2 35/30/2
f  36/31/2 35/30/2 34/29/2
f  36/32/6 34/33/6 38/34/6
f  3/35/6 38/34/6 34/33/6
f  3/36/3 34/37/3 2/38/3
f  37/39/3 2/38/3 34/37/3
f  37/40/4 35/41/4 2/28/4
f  39/30/4 2/28/4 35/41/4
f  36/42/5 38/43/5 35/39/5
f  39/38/5 35/39/5 38/43/5
f  31/44/2 28/45/2 29/46/2
f  30/47/2 29/46/2 28/45/2
f  30/48/5 26/43/5 29/49/5
f  27/50/5 29/49/5 26/43/5
f  30/51/6 28/52/6 26/53/6
f  32/54/6 26/53/6 28/52/6
f  32/36/3 28/55/3 33/56/3
f  31/57/3 33/56/3 28/55/3
f  31/58/4 29/59/4 33/60/4
f  27/61/4 33/60/4 29/59/4

