# File produced by Open Asset Import Library (http://www.assimp.sf.net)
# (assimp v3.1.187496374)

mtllib giant_crystal.obj.mtl

# 191 vertex positions
v  12.2937 25.431 3.2
v  24.3815 24.8631 3.2
v  11.8574 30 3.2
v  13.5868 21.0271 3.2
v  12.2937 34.569 3.2
v  20.7952 36.3416 3.2
v  13.5868 38.9729 3.2
v  15.69 43.0525 3.2
v  24.3815 39.6162 3.2
v  18.5272 46.6603 3.2
v  24.3815 42.8631 3.2
v  21.9959 49.666 3.2
v  27.5233 46.0049 3.2
v  25.9708 51.9608 3.2
v  30.2172 49.6931 3.2
v  30.3082 53.462 3.2
v  34.8512 54.1152 3.2
v  36.216 49.0352 3.2
v  39.4358 53.8968 3.2
v  39.2307 44.9844 3.2
v  37.5484 45.3209 3.2
v  43.8963 52.8147 3.2
v  48.0713 50.9081 3.2
v  45.5947 38.6205 3.2
v  51.81 48.2457 3.2
v  45.5947 29.6205 3.2
v  59.1646 36.8017 3.2
v  57.4588 41.0628 3.2
v  54.9773 44.9239 3.2
v  60.0332 27.7051 3.2
v  59.1646 23.1983 3.2
v  60.0332 32.2949 3.2
v  45.5947 23.5099 3.2
v  57.4588 18.9372 3.2
v  47.8935 16.9407 3.2
v  54.9773 15.0761 3.2
v  51.81 11.7543 3.2
v  48.0713 9.09193 3.2
v  41.7828 10.3069 3.2
v  43.8963 7.18526 3.2
v  32.2978 13.316 3.2
v  39.4358 6.10317 3.2
v  30.3082 6.53798 3.2
v  25.9708 8.03915 3.2
v  34.8512 5.88478 3.2
v  32.1071 13.8609 3.2
v  31.8642 13.8307 3.2
v  21.9959 10.334 3.2
v  28.6716 18.9629 3.2
v  18.5272 13.3397 3.2
v  29.2353 20.0093 3.2
v  15.69 16.9475 3.2
v  60.5482 34.7313 3.63034e-15
v  61 30 4.02036e-15
v  57.0313 43.516 2.31155e-15
v  59.2092 39.2916 3.05379e-15
v  50.5014 50.3644 4.42286e-16
v  54.0933 47.252 1.43043e-15
v  41.894 54.2953 0
v  46.3854 52.7408 0
v  32.4421 54.7455 0
v  37.1895 54.9717 0
v  23.5 51.6506 0
v  27.8233 53.625 0
v  16.3487 45.454 0
v  19.6285 48.8937 0
v  12.0127 37.0433 0
v  13.7791 41.4557 0
v  11.1132 27.6236 0
v  11.1132 32.3764 0
v  13.7791 18.5443 0
v  12.0127 22.9567 0
v  19.6285 11.1063 0
v  16.3487 14.546 0
v  27.8233 6.37498 0
v  23.5 8.34937 0
v  37.1895 5.02832 2.62399e-16
v  32.4421 5.25446 0
v  46.3854 7.2592 2.16769e-15
v  41.894 5.70471 1.26558e-15
v  54.0933 12.748 3.54312e-15
v  50.5014 9.6356 2.93612e-15
v  59.2092 20.7084 4.19164e-15
v  57.0313 16.484 3.96673e-15
v  60.5482 25.2687 4.20974e-15
v  0.26656 32.7496 38.7566
v  24.3815 42.8631 10.8193
v  7.24526 41.2026 43.6397
v  26.0032 44.4848 11.1501
v  3.4614 21.2026 39.4347
v  20.9753 10.7726 24.3455
v  23.1865 15.6554 27.0416
v  24.1507 16.6814 24.3925
v  28.2262 21.0184 13.1953
v  24.4022 5.88981 23.7016
v  35.0017 11.1696 12.1224
v  30.0403 5.88981 25.7537
v  41.8234 1.93363 28.5229
v  35.5259 14.2571 19.4536
v  40.0179 9.70179 32.6938
v  34.8337 15.8965 18.912
v  49.9308 0.570702 24.8606
v  56.2327 6.97594 25.3691
v  31.1329 18.1117 22.752
v  32.8668 16.3778 21.6687
v  30.6536 18.591 27.499
v  32.8668 16.3778 48.2
v  28.602 20.6426 30.5985
v  24.3815 24.8631 48.2
v  26.4143 22.8303 31.1417
v  24.3815 24.8631 37.8201
v  25.9649 23.2797 30.7119
v  34.8564 16.3778 18.3796
v  41.3521 16.3778 26.5999
v  41.3521 16.3778 48.2
v  43.9332 18.9589 26.8575
v  45.5947 20.6205 20.2283
v  45.5947 20.6205 48.2
v  45.5947 38.6205 25.9455
v  43.1437 41.0715 27.4768
v  45.5947 38.6205 48.2
v  39.2307 44.9844 48.2
v  40.237 43.9782 17.9202
v  41.4625 42.7527 5.78176
v  45.5947 32.9823 5.25212
v  45.5947 33.0192 5.48941
v  45.5947 24.6413 8.04938
v  45.5947 25.2983 6.05941
v  45.5947 23.7384 10.7842
v  45.5947 23.2543 17.8444
v  45.5947 28.3796 21.2968
v  45.5947 34.1252 15.7008
v  45.5947 35.3594 20.5545
v  45.5947 34.2723 13.5564
v  28.6241 47.1058 48.2
v  37.2657 33.2189 63.2
v  24.3815 42.8631 48.2
v  28.6241 47.1058 13.3852
v  31.6092 46.5087 22.0916
v  37.4131 45.348 20.9123
v  39.0963 45.0113 7.71453
v  24.3815 27.2208 43.3528
v  24.3815 39.3269 37.1411
v  24.3815 42.8631 20.3222
v  26.626 45.1077 4.85486
v  25.6828 23.5618 8.21832
v  26.548 22.6966 7.67779
v  23.5726 23.1354 12.1453
v  20.6866 21.192 23.9852
v  13.6349 18.1086 44.9958
v  23.1117 19.7668 28.5816
v  22.0089 17.8662 20.1489
v  20.5605 19.9299 20.421
v  24.4336 19.5121 32.3867
v  23.9844 21.5907 30.9917
v  20.6136 26.5616 49.8789
v  23.0992 20.2502 29.7429
v  17.4188 38.1086 49.2009
v  37.3019 67.9703 46.0623
v  33.8329 63.7001 48.4566
v  36.2656 58.5214 50.2628
v  42.1672 57.6127 49.6748
v  43.2034 67.0617 45.4743
v  45.6361 61.8829 47.2805
v  1.47435 28.0868 59.8469
v  44.0376 47.5496 27.7326
v  44.0376 41.9114 29.7847
v  48.9204 38.4845 29.1407
v  63.4072 28.3553 36.1411
v  59.987 23.7175 37.8124
v  60.9374 18.2844 35.4505
v  46.3198 16.107 33.2023
v  54.4272 14.7441 29.54
v  46.9921 23.4221 10.3995
v  29.7889 16.6814 26.4447
v  52.5064 3.10374 40.6783
v  65.3079 17.4892 31.4174
v  68.7281 22.127 29.7461
v  67.7777 27.5601 32.108
v  46.9599 34.2652 8.77688
v  46.6728 34.3965 7.88958
v  45.9591 33.3247 6.19288
v  70.1409 21.0489 40.4158
v  53.8032 40.6958 26.4447
v  50.9725 46.051 32.3867
v  48.9204 49.7608 25.0365
v  53.8032 46.3339 24.3925
v  28.8247 15.6554 29.0937
v  24.6851 8.72048 31.6958
v  32.2516 10.7726 28.4498
v  41.0874 66.2816 56.0532

# 0 UV coordinates

# 215 vertex normals
vn -4.42851e-16 -4.22872e-17 1
vn -4.42228e-16 -2.90092e-17 1
vn -6.45324e-16 8.86437e-17 1
vn -6.03793e-16 2.0242e-16 1
vn -5.04976e-16 2.74027e-16 1
vn -3.56558e-16 3.90501e-16 1
vn -5.00063e-16 2.81603e-16 1
vn -3.76173e-16 2.74759e-16 1
vn -3.29874e-16 3.61454e-16 1
vn -2.47184e-16 3.59457e-16 1
vn -1.29887e-16 -9.66673e-17 1
vn -2.22061e-16 -9.4546e-17 1
vn -2.48673e-16 -7.86901e-17 1
vn 0 0 1
vn -3.92712e-16 0 1
vn -3.14397e-16 -1.66087e-16 1
vn -3.59885e-16 6.93621e-17 1
vn -3.56364e-16 -6.86836e-17 1
vn -4.00218e-16 -5.60015e-17 1
vn -4.05458e-16 -3.05443e-17 1
vn -3.69086e-16 0 1
vn -4.75936e-16 -1.66546e-16 1
vn -5.34366e-16 1.13388e-16 1
vn -4.71697e-16 3.28798e-16 1
vn -4.79145e-16 3.23174e-16 1
vn 5.69434e-17 1.79492e-16 1
vn -2.89607e-16 3.72975e-16 1
vn -2.47644e-16 -1.23864e-16 1
vn -2.83116e-16 -1.57042e-16 1
vn -2.14701e-16 -1.33534e-16 1
vn -3.40176e-16 -9.70836e-17 1
vn -2.80811e-16 -2.04181e-16 1
vn -3.63039e-16 -1.62406e-16 1
vn -4.15162e-16 -1.05174e-16 1
vn 0.969594 0.092585 0.226528
vn 0.939969 0.181164 0.289202
vn 0.86573 0.446315 0.226528
vn 0.805305 0.517538 0.289202
vn 0.637837 0.736104 0.226528
vn 0.55527 0.779768 0.289202
vn 0.318566 0.920435 0.226528
vn 0.225685 0.930284 0.289202
vn -0.046345 0.972901 0.226528
vn -0.136233 0.947525 0.289202
vn -0.404616 0.885986 0.226528
vn -0.478634 0.829019 0.289202
vn -0.70492 0.67214 0.226528
vn -0.752464 0.591744 0.289202
vn -0.904235 0.362001 0.226528
vn -0.918492 0.269694 0.289202
vn -0.974005 0 0.226528
vn -0.952934 -0.0909941 0.289202
vn -0.904235 -0.362001 0.226528
vn -0.850854 -0.438646 0.289202
vn -0.70492 -0.67214 0.226528
vn -0.626877 -0.723455 0.289202
vn -0.404616 -0.885986 0.226528
vn -0.313092 -0.904619 0.289202
vn -0.046345 -0.972901 0.226528
vn 0.0455487 -0.956184 0.289202
vn 0.318566 -0.920435 0.226528
vn 0.397664 -0.870762 0.289202
vn 0.637837 -0.736104 0.226528
vn 0.692808 -0.660591 0.289202
vn 0.86573 -0.446315 0.226528
vn 0.888697 -0.355781 0.289202
vn 0.969594 -0.092585 0.226528
vn -0.952934 0.0909941 0.289202
vn -0.956403 0.184332 0.226528
vn -0.850854 0.438646 0.289202
vn -0.819385 0.526587 0.226528
vn -0.626877 0.723455 0.289202
vn -0.564978 0.793401 0.226528
vn -0.313092 0.904619 0.289202
vn -0.22963 0.946549 0.226528
vn 0.0455487 0.956184 0.289202
vn 0.138615 0.964091 0.226528
vn 0.397664 0.870762 0.289202
vn 0.487002 0.843513 0.226528
vn 0.692808 0.660591 0.289202
vn 0.765619 0.60209 0.226528
vn 0.888697 0.355781 0.289202
vn 0.934551 0.274409 0.226528
vn 0.957268 0 0.289202
vn 0.939969 -0.181164 0.289202
vn 0.934551 -0.274409 0.226528
vn 0.805305 -0.517538 0.289202
vn 0.765619 -0.60209 0.226528
vn 0.55527 -0.779768 0.289202
vn 0.487002 -0.843513 0.226528
vn 0.225685 -0.930284 0.289202
vn 0.138615 -0.964091 0.226528
vn -0.136233 -0.947525 0.289202
vn -0.22963 -0.946549 0.226528
vn -0.478634 -0.829019 0.289202
vn -0.564978 -0.793401 0.226528
vn -0.752464 -0.591744 0.289202
vn -0.819385 -0.526587 0.226528
vn -0.918492 -0.269694 0.289202
vn -0.956403 -0.184332 0.226528
vn 8.41337e-17 -7.43992e-17 -1
vn 8.79033e-17 -1.00618e-16 -1
vn 8.77739e-17 -2.18049e-17 -1
vn 9.05392e-17 3.62464e-17 -1
vn 9.56874e-17 3.81381e-17 -1
vn 9.83372e-17 9.37643e-17 -1
vn 1.01729e-16 1.47162e-16 -1
vn 1.0575e-16 2.3156e-16 -1
vn 9.45845e-17 8.25274e-16 -1
vn 0 0 -1
vn 5.93415e-17 -8.33335e-17 -1
vn 1.16743e-16 -1.82755e-16 -1
vn 1.03734e-16 -1.54271e-16 -1
vn -0.643187 0.704416 -0.300182
vn -0.825238 -0.257834 -0.502498
vn -0.872287 0.469846 -0.135501
vn -0.755309 -0.469846 -0.456895
vn 0.116978 -0.939693 -0.321394
vn -0.924359 -0.323464 0.202317
vn -0.288449 -0.909224 -0.300182
vn 0.63591 -0.58576 -0.502498
vn -0.707107 -0.707107 0
vn -0.707107 -0.707107 8.91182e-16
vn -0.707107 -0.707107 -8.20441e-15
vn 0 -1 0
vn 0.707107 -0.707107 0
vn -1 0 0
vn 0.707107 0.707107 0
vn 0.707107 0.707107 -1.20006e-15
vn 0.707107 0.707107 -1.45313e-16
vn 0.707107 0.707107 -1.00913e-14
vn 1 0 0
vn 0.153528 0.767638 0.622223
vn -0.484747 0.484747 0.728039
vn 0.196116 0.980581 0
vn 0.196116 0.980581 -2.76764e-16
vn 0.196116 0.980581 -4.78002e-16
vn 0.196116 0.980581 3.89891e-15
vn 0.59361 0.59361 0.543373
vn -0.758579 1.54325e-15 0.651581
vn -0.707107 0.707107 0
vn -0.707107 0.707107 5.43377e-16
vn -0.707107 0.707107 6.93257e-16
vn -0.707107 0.707107 -3.38225e-15
vn 0.874265 -1.15038e-15 0.485449
vn 0.50338 -0.50338 0.702295
vn 1.18816e-15 -0.665111 0.746745
vn -0.499684 -0.499684 0.707553
vn -0.707107 -0.707107 2.41507e-14
vn -0.707107 -0.707107 6.9351e-15
vn -0.707107 -0.707107 3.92839e-15
vn -0.182051 -0.96225 -0.202317
vn 0.360558 0.131266 0.923454
vn -0.298829 0.486436 0.821025
vn 0.643187 -0.704416 0.300182
vn 0.825238 0.257834 0.502498
vn 0.182051 0.96225 0.202317
vn -0.801963 0.58576 -0.117221
vn -0.901676 -0.323464 0.286968
vn -0.0997132 -0.909224 0.404189
vn 0.901676 0.323464 -0.286968
vn 0.801963 -0.58576 0.117221
vn 0.465628 0.179713 0.866541
vn 0.307967 -0.65362 0.69133
vn -0.406709 -0.876911 0.256154
vn -0.963725 -0.266869 -0.00381137
vn -0.091388 0.789755 0.606576
vn -0.806065 0.566464 0.1714
vn -0.939693 0.116978 0.321394
vn -0.469846 -0.755309 0.456895
vn -0.512002 0.599323 0.615358
vn -0.749656 -0.369751 0.548907
vn 0.288449 0.909224 0.300182
vn -0.63591 0.58576 0.502498
vn 0.872287 -0.469846 0.135501
vn -0.869788 0.131266 0.475644
vn -0.781361 -0.579075 0.232694
vn -0.38845 0.313389 0.866541
vn 0.412068 0.593518 0.69133
vn 0.962782 0.0862349 0.256154
vn 0.712978 -0.701176 -0.00381137
vn -0.638254 -0.474022 0.606576
vn -0.0875401 -0.981305 0.1714
vn 0.924359 0.323464 -0.202317
vn -0.237654 -0.969074 -0.0664505
vn 0.512002 -0.599323 -0.615358
vn 0.237654 0.969074 0.0664505
vn 0.749656 0.369751 -0.548907
vn 0.970518 0.216138 -0.106672
vn 0.764704 -0.623105 -0.16422
vn 0.115482 -0.943319 0.311148
vn -0.327925 -0.42429 0.844064
vn 0.527111 0.735167 0.426244
vn -0.12211 0.414953 0.901611
vn 0.469846 -0.872287 0.135501
vn -0.131266 0.869788 0.475644
vn 0.579075 0.781361 0.232694
vn -0.486436 0.298829 0.821025
vn -0.131266 -0.360558 0.923454
vn -0.469846 0.872287 -0.135501
vn 0.469846 0.755309 -0.456895
vn 0.934246 0.121975 0.335123
vn 0.939693 -0.116978 -0.321394
vn 0.579075 -0.448985 0.680503
vn -0.121975 -0.934246 0.335123
vn 0.448985 -0.579075 0.680503
vn -0.116978 0.939693 0.321394
vn 0.755309 0.469846 0.456895
vn 0.0997132 0.909224 -0.404189
vn 0.769678 -0.313389 0.556222
vn -0.0111963 -0.593518 0.804743
vn -0.705717 -0.0862349 0.703226
vn -0.619363 0.701176 0.353188
vn 0.856032 0.474022 0.206184
vn 0.161512 0.981305 0.104667

# Mesh '<STL_BINARY>' with 378 faces
g <STL_BINARY>
usemtl DefaultMaterial
f  1//1 2//1 3//1
f  1//1 4//2 2//1
f  5//3 3//1 6//4
f  2//1 6//4 3//1
f  7//4 5//3 6//4
f  7//4 6//4 8//5
f  6//4 9//6 8//5
f  10//7 8//5 11//7
f  9//6 11//7 8//5
f  10//7 11//7 12//7
f  11//7 13//8 12//7
f  12//7 13//8 14//9
f  15//10 14//9 13//8
f  16//10 14//9 15//10
f  16//10 15//10 17//10
f  15//10 18//11 17//10
f  17//10 18//11 19//12
f  20//13 19//12 18//11
f  20//13 18//11 21//14
f  22//13 19//12 20//13
f  22//13 20//13 23//13
f  20//13 24//15 23//13
f  23//13 24//15 25//16
f  26//17 27//18 24//15
f  27//18 28//19 24//15
f  28//19 29//20 24//15
f  29//20 25//16 24//15
f  30//17 26//17 31//17
f  30//17 32//21 26//17
f  32//21 27//18 26//17
f  26//17 33//22 31//17
f  31//17 33//22 34//23
f  35//24 34//23 33//22
f  36//25 34//23 35//24
f  37//24 35//24 38//24
f  37//24 36//25 35//24
f  35//24 39//26 38//24
f  38//24 39//26 40//27
f  41//28 42//29 39//26
f  42//29 40//27 39//26
f  43//28 41//28 44//28
f  43//28 45//30 41//28
f  45//30 42//29 41//28
f  46//14 47//14 41//28
f  41//28 47//14 44//28
f  48//31 44//28 49//32
f  49//32 44//28 47//14
f  50//33 48//31 49//32
f  2//1 50//33 49//32
f  2//1 49//32 51//14
f  52//34 50//33 2//1
f  4//2 52//34 2//1
f  53//35 32//35 54//35
f  32//36 53//36 27//36
f  55//37 28//37 56//37
f  28//38 55//38 29//38
f  57//39 25//39 58//39
f  25//40 57//40 23//40
f  59//41 22//41 60//41
f  22//42 59//42 19//42
f  61//43 17//43 62//43
f  17//44 61//44 16//44
f  63//45 14//45 64//45
f  14//46 63//46 12//46
f  65//47 10//47 66//47
f  10//48 65//48 8//48
f  67//49 7//49 68//49
f  7//50 67//50 5//50
f  69//51 3//51 70//51
f  3//52 69//52 1//52
f  71//53 4//53 72//53
f  4//54 71//54 52//54
f  73//55 50//55 74//55
f  50//56 73//56 48//56
f  75//57 44//57 76//57
f  44//58 75//58 43//58
f  77//59 45//59 78//59
f  45//60 77//60 42//60
f  79//61 40//61 80//61
f  40//62 79//62 38//62
f  81//63 37//63 82//63
f  37//64 81//64 36//64
f  83//65 34//65 84//65
f  34//66 83//66 31//66
f  54//67 30//67 85//67
f  3//68 5//68 70//68
f  70//69 5//69 67//69
f  7//70 8//70 68//70
f  68//71 8//71 65//71
f  10//72 12//72 66//72
f  66//73 12//73 63//73
f  14//74 16//74 64//74
f  64//75 16//75 61//75
f  17//76 19//76 62//76
f  62//77 19//77 59//77
f  22//78 23//78 60//78
f  60//79 23//79 57//79
f  25//80 29//80 58//80
f  58//81 29//81 55//81
f  28//82 27//82 56//82
f  56//83 27//83 53//83
f  32//84 30//84 54//84
f  30//85 31//85 85//85
f  85//86 31//86 83//86
f  34//87 36//87 84//87
f  84//88 36//88 81//88
f  37//89 38//89 82//89
f  82//90 38//90 79//90
f  40//91 42//91 80//91
f  80//92 42//92 77//92
f  45//93 43//93 78//93
f  78//94 43//94 75//94
f  44//95 48//95 76//95
f  76//96 48//96 73//96
f  50//97 52//97 74//97
f  74//98 52//98 71//98
f  4//99 1//99 72//99
f  72//100 1//100 69//100
f  53//101 54//101 69//101
f  53//101 69//101 56//102
f  85//103 69//101 54//101
f  83//103 72//103 85//103
f  72//103 69//101 85//103
f  72//103 83//103 71//104
f  84//105 71//104 83//103
f  74//105 71//104 84//105
f  81//105 74//105 84//105
f  74//105 81//105 73//106
f  82//107 73//106 81//105
f  76//107 73//106 82//107
f  79//107 76//107 82//107
f  76//107 79//107 75//108
f  80//109 75//108 79//107
f  78//109 75//108 80//109
f  77//109 78//109 80//109
f  70//110 67//110 69//101
f  67//110 68//110 69//101
f  68//110 65//110 69//101
f  65//110 66//110 69//101
f  66//110 63//110 69//101
f  63//110 64//110 69//101
f  64//110 61//110 69//101
f  61//110 62//110 69//101
f  62//110 59//110 69//101
f  59//110 60//110 69//101
f  60//110 57//111 69//101
f  57//111 58//112 69//101
f  58//112 55//113 69//101
f  55//113 56//102 69//101
f  6//114 86//114 9//114
f  9//114 86//114 87//114
f  88//114 87//114 86//114
f  89//114 87//114 88//114
f  2//115 90//115 6//115
f  90//115 86//115 6//115
f  49//116 91//116 51//116
f  92//116 93//116 91//116
f  93//116 94//116 91//116
f  94//116 51//116 91//116
f  49//117 47//117 91//117
f  47//117 95//117 91//117
f  47//118 46//118 95//118
f  46//118 96//118 95//118
f  96//118 97//118 95//118
f  46//119 41//119 96//119
f  41//119 98//119 96//119
f  96//119 98//119 99//119
f  100//119 99//119 98//119
f  101//119 99//119 100//119
f  41//120 39//120 98//120
f  39//120 102//120 98//120
f  35//121 103//121 39//121
f  103//121 102//121 39//121
f  104//122 105//122 106//122
f  105//122 107//122 106//122
f  106//122 107//122 108//123
f  109//122 108//123 107//122
f  110//122 108//123 109//122
f  111//122 110//122 109//122
f  111//122 112//124 110//122
f  105//125 113//125 107//125
f  113//125 114//125 107//125
f  114//125 115//125 107//125
f  114//126 116//126 115//126
f  117//126 118//126 116//126
f  118//126 115//126 116//126
f  9//127 87//127 11//127
f  119//128 120//128 121//128
f  121//128 120//128 122//129
f  123//130 122//129 120//128
f  20//130 122//129 123//130
f  124//130 20//130 123//130
f  124//130 24//131 20//130
f  24//132 125//132 26//132
f  125//132 126//132 26//132
f  127//132 128//132 26//132
f  128//132 33//132 26//132
f  129//132 130//132 117//132
f  117//132 130//132 118//132
f  130//132 131//132 118//132
f  118//132 131//132 121//132
f  132//132 133//132 131//132
f  133//132 121//132 131//132
f  119//132 121//132 133//132
f  132//132 134//132 133//132
f  122//133 135//133 136//133
f  136//134 135//134 137//134
f  138//135 135//135 139//135
f  135//135 122//136 139//135
f  140//137 139//135 122//136
f  20//135 141//135 122//136
f  141//135 140//137 122//136
f  20//135 21//138 141//135
f  122//139 136//139 121//139
f  136//140 137//140 109//140
f  111//127 109//127 142//127
f  109//127 137//127 142//127
f  143//127 142//127 137//127
f  144//127 143//127 137//127
f  144//141 137//141 89//141
f  137//141 135//142 89//141
f  135//142 138//141 89//141
f  138//141 145//143 89//141
f  87//141 89//141 11//144
f  89//141 145//143 11//144
f  13//144 11//144 145//143
f  121//145 136//145 118//145
f  118//146 136//146 115//146
f  115//147 136//147 107//147
f  136//148 109//148 107//148
f  146//149 2//149 147//149
f  2//149 51//150 147//149
f  51//150 94//151 147//149
f  146//152 148//152 2//152
f  2//152 148//152 90//152
f  149//152 90//152 148//152
f  150//152 90//152 149//152
f  151//152 150//152 149//152
f  147//117 152//117 146//117
f  153//117 148//117 152//117
f  148//117 146//117 152//117
f  108//153 110//153 154//153
f  110//154 112//154 154//154
f  112//154 155//154 154//154
f  112//155 111//155 155//155
f  142//155 156//155 111//155
f  156//155 150//155 111//155
f  150//155 155//155 111//155
f  157//155 155//155 150//155
f  151//155 157//155 150//155
f  143//156 158//156 142//156
f  158//156 156//156 142//156
f  158//157 143//157 88//157
f  88//157 143//157 144//157
f  89//157 88//157 144//157
f  15//158 13//158 159//158
f  145//158 160//158 13//158
f  160//158 159//158 13//158
f  145//159 138//159 160//159
f  138//159 139//159 160//159
f  139//159 161//159 160//159
f  140//160 162//160 139//160
f  162//160 161//160 139//160
f  18//161 163//161 21//161
f  163//161 164//161 21//161
f  164//161 141//161 21//161
f  141//162 164//162 140//162
f  164//162 162//162 140//162
f  165//163 156//163 158//163
f  156//164 165//164 150//164
f  150//165 165//165 90//165
f  90//166 165//166 86//166
f  165//167 158//167 88//167
f  165//168 88//168 86//168
f  123//169 120//169 166//169
f  120//169 167//169 166//169
f  133//170 168//170 119//170
f  168//170 167//170 119//170
f  167//170 120//170 119//170
f  132//171 131//171 169//171
f  131//171 170//171 169//171
f  130//172 171//172 131//172
f  171//172 170//172 131//172
f  116//173 172//173 117//173
f  172//173 173//173 117//173
f  129//173 117//173 173//173
f  128//173 174//173 173//173
f  174//173 129//173 173//173
f  128//173 127//173 174//173
f  113//174 100//174 114//174
f  113//174 101//174 100//174
f  100//174 172//174 114//174
f  172//174 116//174 114//174
f  104//175 106//175 175//175
f  155//176 157//176 154//176
f  157//177 151//177 154//177
f  154//177 151//177 93//177
f  151//177 149//177 93//177
f  152//177 93//177 153//177
f  153//177 93//177 149//177
f  176//178 172//178 100//178
f  172//179 176//179 173//179
f  173//180 176//180 103//180
f  103//181 176//181 102//181
f  176//182 100//182 98//182
f  176//183 98//183 102//183
f  35//184 33//184 103//184
f  128//184 173//184 33//184
f  173//184 103//184 33//184
f  171//185 130//185 177//185
f  177//185 130//185 129//185
f  174//185 177//185 129//185
f  26//186 178//186 127//186
f  178//186 177//186 127//186
f  177//186 174//186 127//186
f  132//187 169//187 134//187
f  169//187 179//187 134//187
f  180//187 134//187 179//187
f  181//187 180//187 179//187
f  26//188 126//188 178//188
f  178//188 126//188 179//188
f  182//188 179//188 126//188
f  181//188 179//188 182//188
f  183//189 178//189 179//189
f  178//190 183//190 177//190
f  177//191 183//191 171//191
f  171//192 183//192 170//192
f  183//193 179//193 169//193
f  183//194 169//194 170//194
f  168//195 133//195 184//195
f  184//195 133//195 134//195
f  180//195 184//195 134//195
f  126//195 125//195 182//195
f  166//196 185//196 186//196
f  186//197 185//197 187//197
f  185//198 166//198 167//198
f  185//199 167//199 168//199
f  124//200 123//200 186//200
f  123//200 166//200 186//200
f  24//201 124//201 187//201
f  124//201 186//201 187//201
f  187//202 185//202 184//202
f  182//203 125//203 181//203
f  125//203 24//203 181//203
f  24//203 187//203 181//203
f  187//203 184//203 181//203
f  184//203 180//203 181//203
f  185//204 168//204 184//204
f  147//118 94//118 152//118
f  94//118 93//118 152//118
f  154//205 93//205 175//205
f  149//116 148//116 153//116
f  108//206 154//206 106//206
f  154//206 175//206 106//206
f  93//207 92//207 175//207
f  92//207 188//207 175//207
f  189//177 91//177 95//177
f  96//175 99//175 97//175
f  99//175 190//175 97//175
f  189//205 95//205 97//205
f  189//176 92//176 91//176
f  92//154 189//154 188//154
f  188//153 189//153 190//153
f  104//208 175//208 105//208
f  175//208 188//208 105//208
f  188//208 190//208 105//208
f  113//208 105//208 101//208
f  101//208 105//208 190//208
f  99//208 101//208 190//208
f  190//206 189//206 97//206
f  15//209 159//209 18//209
f  159//209 163//209 18//209
f  191//210 162//210 164//210
f  162//211 191//211 161//211
f  161//212 191//212 160//212
f  160//213 191//213 159//213
f  191//214 164//214 163//214
f  191//215 163//215 159//215

